Coordinates
version=1
nRows=43
nColumns=12
inDegrees=yes

Units are S.I. units (second, meters, Newtons, ...)
Angles are in degrees

endheader
time	SC_y	SC_z	SC_x	AC_y	AC_z	AC_x	GH_y	GH_z	GH_yy	EL_x	PS_y
       0.0              -56.92           28.0          21.82          48.65         -15.44          19.15         -15.94          73.83         -7.731          49.13          25.97
   0.01097              -56.91           28.0          21.82          48.65         -15.43          19.15         -15.95          73.82         -7.732          49.13          25.99
   0.02195              -56.91           28.0          21.83          48.64         -15.43          19.14         -15.96          73.81         -7.732          49.14          26.01
   0.03292              -56.91          28.01          21.84          48.64         -15.43          19.14         -15.97          73.79         -7.733          49.14          26.03
    0.0439              -56.91          28.01          21.85          48.64         -15.42          19.14         -15.98          73.78         -7.733          49.14          26.05
   0.05487               -56.9          28.01          21.85          48.64         -15.42          19.13         -15.98          73.76         -7.734          49.14          26.07
   0.06585               -56.9          28.01          21.86          48.64         -15.42          19.13         -15.99          73.74         -7.734          49.14           26.1
   0.07682               -56.9          28.01          21.87          48.64         -15.41          19.12         -16.01          73.72         -7.735          49.14          26.12
   0.08779               -56.9          28.01          21.88          48.63         -15.41          19.12         -16.02           73.7         -7.736          49.14          26.15
   0.09877              -56.89          28.02           21.9          48.63          -15.4          19.11         -16.03          73.68         -7.737          49.15          26.18
    0.1097              -56.89          28.02          21.91          48.63          -15.4           19.1         -16.04          73.66         -7.737          49.15          26.21
    0.1207              -56.88          28.02          21.92          48.63         -15.39           19.1         -16.06          73.63         -7.738          49.15          26.25
    0.1317              -56.88          28.02          21.94          48.62         -15.38          19.09         -16.07           73.6         -7.739          49.15          26.29
    0.1427              -56.87          28.03          21.95          48.62         -15.38          19.08         -16.09          73.57          -7.74          49.16          26.33
    0.1536              -56.87          28.03          21.97          48.62         -15.37          19.08         -16.11          73.54         -7.741          49.16          26.37
    0.1646              -56.86          28.03          21.99          48.61         -15.36          19.07         -16.13          73.51         -7.743          49.16          26.42
    0.1756              -56.86          28.04          22.01          48.61         -15.35          19.06         -16.15          73.47         -7.744          49.16          26.47
    0.1866              -56.85          28.04          22.03          48.61         -15.34          19.05         -16.17          73.43         -7.745          49.17          26.53
    0.1975              -56.84          28.04          22.05           48.6         -15.33          19.03          -16.2          73.38         -7.747          49.17          26.59
    0.2085              -56.84          28.05          22.08           48.6         -15.32          19.02         -16.22          73.33         -7.749          49.18          26.66
    0.2195              -56.83          28.05           22.1          48.59         -15.31          19.01         -16.25          73.28         -7.751          49.18          26.73
    0.2305              -56.82          28.06          22.13          48.58          -15.3          18.99         -16.29          73.22         -7.753          49.19          26.82
    0.2414              -56.81          28.07          22.17          48.58         -15.28          18.98         -16.33          73.15         -7.755          49.19          26.91
    0.2524              -56.79          28.07          22.21          48.57         -15.27          18.96         -16.37          73.08         -7.758           49.2          27.01
    0.2634              -56.78          28.08          22.25          48.56         -15.25          18.94         -16.41           73.0         -7.761          49.21          27.12
    0.2744              -56.77          28.09          22.29          48.55         -15.23          18.91         -16.46          72.91         -7.764          49.21          27.24
    0.2853              -56.75           28.1          22.35          48.54          -15.2          18.89         -16.52          72.81         -7.767          49.22          27.38
    0.2963              -56.73          28.11          22.41          48.53         -15.18          18.86         -16.58          72.69         -7.771          49.23          27.54
    0.3073              -56.71          28.12          22.47          48.52         -15.15          18.82         -16.66          72.56         -7.776          49.24          27.72
    0.3183              -56.69          28.14          22.55           48.5         -15.12          18.79         -16.74          72.42         -7.781          49.26          27.92
    0.3292              -56.66          28.15          22.64          48.48         -15.08          18.74         -16.83          72.25         -7.787          49.27          28.15
    0.3402              -56.63          28.17          22.73          48.46         -15.03          18.69         -16.94          72.06         -7.794          49.29          28.42
    0.3512              -56.59          28.19          22.85          48.44         -14.98          18.64         -17.06          71.84         -7.801          49.31          28.72
    0.3622              -56.55          28.21          22.98          48.41         -14.93          18.57         -17.21          71.58          -7.81          49.33          29.08
    0.3731               -56.5          28.24          23.14          48.38         -14.86          18.49         -17.38          71.28         -7.821          49.35          29.49
    0.3841              -56.44          28.28          23.32          48.35         -14.78           18.4         -17.58          70.92         -7.833          49.39          29.98
    0.3951              -56.37          28.32          23.54           48.3         -14.68          18.29         -17.81           70.5         -7.848          49.42          30.56
    0.4061              -56.29          28.36           23.8          48.25         -14.57          18.17          -18.1           70.0         -7.866          49.47          31.26
     0.417              -56.19          28.42          24.12          48.19         -14.43          18.01         -18.44          69.39         -7.888          49.52           32.1
     0.428              -56.07          28.49           24.5          48.11         -14.26          17.82         -18.86          68.64         -7.914          49.58          33.13
     0.439              -55.92          28.58          24.98          48.02         -14.05          17.58         -19.38          67.72         -7.946          49.66           34.4
    0.4499              -55.73          28.69          25.57           47.9         -13.79          17.28         -20.02          66.57         -7.987          49.76          35.99
    0.4609               -55.5          28.82          26.32          47.75         -13.46          16.91         -20.84          65.12         -8.038          49.89          37.98
